<svg width="199" height="31" viewBox="0 0 199 31" fill="none" xmlns="http://www.w3.org/2000/svg">
<path d="M7.992 22.416C6.47733 22.416 5.144 22.0747 3.992 21.392C2.86133 20.7093 1.98667 19.7387 1.368 18.48C0.749333 17.2213 0.44 15.728 0.44 14C0.44 12.3573 0.706667 10.7787 1.24 9.264C1.77333 7.74933 2.54133 6.39467 3.544 5.2C4.54667 4.00533 5.752 3.056 7.16 2.352C8.568 1.648 10.1573 1.296 11.928 1.296C13.2507 1.296 14.3387 1.49867 15.192 1.904C16.0453 2.30933 16.472 2.90667 16.472 3.696C16.472 4.08 16.3653 4.464 16.152 4.848C15.96 5.21067 15.704 5.52 15.384 5.776C15.064 6.032 14.7333 6.16 14.392 6.16C14.1787 6.16 14.008 6.10667 13.88 6C13.304 5.616 12.7387 5.33867 12.184 5.168C11.6293 4.976 10.9893 4.88 10.264 4.88C8.74933 4.88 7.46933 5.232 6.424 5.936C5.37867 6.61867 4.57867 7.52533 4.024 8.656C3.49067 9.78667 3.224 11.0133 3.224 12.336C3.224 13.616 3.46933 14.7467 3.96 15.728C4.45067 16.7093 5.13333 17.4773 6.008 18.032C6.88267 18.5867 7.90667 18.864 9.08 18.864C10.0187 18.864 10.9253 18.6827 11.8 18.32C12.696 17.936 13.4853 17.4133 14.168 16.752C14.4667 16.4747 14.7653 16.336 15.064 16.336C15.32 16.336 15.5013 16.4427 15.608 16.656C15.7147 16.8693 15.768 17.0827 15.768 17.296C15.768 17.6587 15.6613 18.0747 15.448 18.544C15.2347 18.992 14.904 19.44 14.456 19.888C13.6667 20.6773 12.696 21.296 11.544 21.744C10.392 22.192 9.208 22.416 7.992 22.416ZM22.8345 22.416C21.3625 22.416 20.1785 22.0213 19.2825 21.232C18.4078 20.4213 17.9705 19.2373 17.9705 17.68C17.9705 16.9547 18.0665 16.2507 18.2585 15.568C18.4718 14.8853 18.7492 14.2453 19.0905 13.648C18.7492 13.8613 18.4932 13.968 18.3225 13.968C18.0665 13.968 17.8852 13.8293 17.7785 13.552C17.6932 13.2533 17.6505 12.9653 17.6505 12.688C17.6505 12.1973 17.7465 11.8133 17.9385 11.536C18.1518 11.2373 18.3545 11.0133 18.5465 10.864C18.9945 10.48 19.6985 10.064 20.6585 9.616C21.6185 9.14667 22.7705 8.912 24.1145 8.912C25.9492 8.912 27.3678 9.424 28.3705 10.448C29.3945 11.472 29.9065 12.9013 29.9065 14.736C29.9065 16.1653 29.6078 17.4667 29.0105 18.64C28.4132 19.792 27.5812 20.7093 26.5145 21.392C25.4692 22.0747 24.2425 22.416 22.8345 22.416ZM23.8265 19.152C24.8932 19.152 25.7892 18.8213 26.5145 18.16C27.2612 17.4773 27.6345 16.5813 27.6345 15.472C27.6345 14.32 27.2612 13.4987 26.5145 13.008C25.7678 12.5173 24.9038 12.272 23.9225 12.272C23.4745 12.272 23.0692 12.3147 22.7065 12.4C22.3438 12.4853 22.0025 12.592 21.6825 12.72C21.3838 13.1467 21.1172 13.6267 20.8825 14.16C20.6478 14.6933 20.5305 15.28 20.5305 15.92C20.5305 16.9867 20.8505 17.7973 21.4905 18.352C22.1305 18.8853 22.9092 19.152 23.8265 19.152ZM34.1643 22.352C33.3963 22.352 33.0549 22.096 33.1403 21.584C33.3749 20.6667 33.5669 19.7387 33.7163 18.8C33.8869 17.84 33.9723 16.9227 33.9723 16.048C33.9723 14.9173 33.8976 14.096 33.7483 13.584C33.6203 13.0507 33.4389 12.688 33.2043 12.496C32.9696 12.2827 32.6816 12.1227 32.3403 12.016C32.1909 11.952 32.0523 11.8667 31.9243 11.76C31.8176 11.6533 31.7643 11.504 31.7643 11.312C31.7643 11.0133 31.8816 10.6827 32.1163 10.32C32.3509 9.95733 32.6816 9.648 33.1083 9.392C33.5563 9.11467 34.0576 8.976 34.6123 8.976C35.3376 8.976 35.8389 9.232 36.1163 9.744C36.3936 10.2347 36.5323 10.8853 36.5323 11.696C36.5323 12.2293 36.4789 12.8267 36.3723 13.488C36.2656 14.1493 36.1589 14.7467 36.0523 15.28L36.1163 15.312C36.4576 14.1813 36.8736 13.136 37.3643 12.176C37.8763 11.216 38.4843 10.4373 39.1883 9.84C39.9136 9.24267 40.7456 8.944 41.6843 8.944C42.6443 8.944 43.4016 9.27467 43.9563 9.936C44.5109 10.576 44.7883 11.5253 44.7883 12.784V13.488C45.4069 12.1867 46.1536 11.0987 47.0283 10.224C47.9243 9.34933 49.0016 8.912 50.2603 8.912C51.2843 8.912 52.0843 9.25333 52.6603 9.936C53.2363 10.6187 53.5243 11.472 53.5243 12.496C53.5243 12.9013 53.4816 13.296 53.3963 13.68C53.3109 14.0427 53.2149 14.4053 53.1083 14.768C53.0229 15.1093 52.9376 15.4613 52.8523 15.824C52.7669 16.1867 52.7243 16.5493 52.7243 16.912C52.7243 18.192 53.2683 19.024 54.3563 19.408C54.5056 19.472 54.6229 19.5467 54.7083 19.632C54.7936 19.696 54.8363 19.824 54.8363 20.016C54.8363 20.208 54.7723 20.4853 54.6443 20.848C54.5376 21.2107 54.3136 21.552 53.9723 21.872C53.6309 22.1707 53.1403 22.32 52.5003 22.32C51.6683 22.32 51.0283 22.0213 50.5803 21.424C50.1323 20.8053 49.9083 20.0267 49.9083 19.088C49.9083 18.6187 49.9509 18.128 50.0363 17.616C50.1216 17.104 50.2283 16.6133 50.3563 16.144C50.4629 15.7173 50.5483 15.312 50.6123 14.928C50.6976 14.544 50.7403 14.2133 50.7403 13.936C50.7403 13.424 50.6123 13.0507 50.3563 12.816C50.1216 12.5813 49.8016 12.464 49.3963 12.464C48.7136 12.464 48.0949 12.6773 47.5403 13.104C47.0069 13.5307 46.5269 14.0853 46.1003 14.768C45.6949 15.4507 45.3429 16.1973 45.0443 17.008C45.0656 17.2 45.0763 17.456 45.0763 17.776C45.0976 18.0747 45.1083 18.3413 45.1083 18.576C45.1083 18.9813 45.0763 19.408 45.0123 19.856C44.9696 20.304 44.8736 20.6773 44.7243 20.976C44.5536 21.3813 44.2976 21.712 43.9563 21.968C43.6363 22.224 43.1989 22.352 42.6443 22.352C42.4096 22.352 42.1856 22.2987 41.9723 22.192C41.7589 22.1067 41.6523 21.9573 41.6523 21.744C41.6523 21.6587 41.7163 21.2853 41.8443 20.624C41.9723 19.9413 42.1003 19.1093 42.2283 18.128C42.3563 17.1467 42.4203 16.1867 42.4203 15.248C42.4203 14.224 42.3136 13.52 42.1003 13.136C41.8869 12.7307 41.5669 12.528 41.1403 12.528C40.6069 12.528 40.0949 12.752 39.6042 13.2C39.1349 13.648 38.6976 14.224 38.2923 14.928C37.9083 15.632 37.5669 16.368 37.2683 17.136C36.9909 17.904 36.7669 18.6187 36.5963 19.28V19.632C36.5963 20.4213 36.3723 21.072 35.9243 21.584C35.4976 22.096 34.9109 22.352 34.1643 22.352ZM58.7923 22.352C58.4509 22.352 58.1736 22.288 57.9603 22.16C57.7683 22.0533 57.7043 21.8613 57.7682 21.584C58.0029 20.6667 58.1949 19.7387 58.3443 18.8C58.5149 17.84 58.6003 16.9227 58.6003 16.048C58.6003 14.9173 58.5256 14.096 58.3763 13.584C58.2483 13.0507 58.0669 12.688 57.8323 12.496C57.5976 12.2827 57.3096 12.1227 56.9683 12.016C56.8189 11.952 56.6803 11.8667 56.5523 11.76C56.4456 11.6533 56.3923 11.504 56.3923 11.312C56.3923 11.0133 56.5096 10.6827 56.7443 10.32C56.9789 9.95733 57.3096 9.648 57.7363 9.392C58.1629 9.11467 58.6536 8.976 59.2083 8.976C59.9336 8.976 60.4349 9.232 60.7123 9.744C61.0109 10.2347 61.1603 10.8853 61.1603 11.696C61.5443 10.8427 62.0136 10.1707 62.5683 9.68C63.1443 9.168 63.8589 8.912 64.7123 8.912C65.2883 8.912 65.7683 9.04 66.1523 9.296C66.5363 9.552 66.7283 9.968 66.7283 10.544C66.7283 11.12 66.5363 11.664 66.1523 12.176C65.7896 12.6667 65.4163 12.912 65.0323 12.912C64.9683 12.912 64.8936 12.9013 64.8083 12.88C64.7229 12.8587 64.6483 12.8053 64.5843 12.72C64.3069 12.3787 63.9656 12.208 63.5603 12.208C62.9416 12.208 62.3976 12.6133 61.9283 13.424C61.4589 14.2347 61.2029 15.3547 61.1603 16.784C61.1816 17.3173 61.1923 17.8613 61.1923 18.416C61.2136 18.9707 61.2243 19.376 61.2243 19.632C61.2243 20.4213 61.0003 21.072 60.5523 21.584C60.1256 22.096 59.5389 22.352 58.7923 22.352ZM71.1215 22.416C69.8415 22.416 68.8068 22.0213 68.0175 21.232C67.2495 20.4213 66.8655 19.2693 66.8655 17.776C66.8655 16.7093 67.0682 15.6533 67.4735 14.608C67.9002 13.5413 68.5082 12.5813 69.2975 11.728C70.0868 10.8747 71.0362 10.192 72.1455 9.68C73.2548 9.168 74.5028 8.912 75.8895 8.912C77.1695 8.912 78.2575 9.136 79.1535 9.584C80.0708 10.0107 80.5295 10.5973 80.5295 11.344C80.5295 11.536 80.5082 11.792 80.4655 12.112C80.4228 12.4107 80.3695 12.656 80.3055 12.848C80.2415 13.0187 80.1455 13.1787 80.0175 13.328C79.9108 13.456 79.7615 13.52 79.5695 13.52C79.4842 13.52 79.3242 13.488 79.0895 13.424C79.0042 13.872 78.9402 14.3093 78.8975 14.736C78.8548 15.1627 78.8335 15.5893 78.8335 16.016C78.8335 16.8267 78.9508 17.552 79.1855 18.192C79.4415 18.8107 79.9322 19.1947 80.6575 19.344C80.8495 19.3867 80.9988 19.4507 81.1055 19.536C81.2335 19.6213 81.2975 19.8027 81.2975 20.08C81.2975 20.3147 81.2335 20.6133 81.1055 20.976C80.9988 21.3387 80.7748 21.6693 80.4335 21.968C80.1135 22.2453 79.6442 22.384 79.0255 22.384C78.1935 22.384 77.5535 22.0853 77.1055 21.488C76.6575 20.8693 76.4335 19.9947 76.4335 18.864C75.8575 19.9093 75.1215 20.7627 74.2255 21.424C73.3508 22.0853 72.3162 22.416 71.1215 22.416ZM72.1455 19.088C72.9988 19.088 73.7455 18.8213 74.3855 18.288C75.0468 17.7547 75.5588 17.0827 75.9215 16.272C76.1562 15.76 76.3375 15.2053 76.4655 14.608C76.5935 13.9893 76.6788 13.3813 76.7215 12.784C76.3588 12.6133 75.9428 12.4747 75.4735 12.368C75.0042 12.2613 74.5135 12.208 74.0015 12.208C72.7002 12.208 71.6228 12.592 70.7695 13.36C69.9375 14.128 69.5215 15.088 69.5215 16.24C69.5215 17.0933 69.7562 17.7867 70.2255 18.32C70.6948 18.832 71.3348 19.088 72.1455 19.088ZM87.2785 22.416C85.9985 22.416 84.9852 21.9893 84.2385 21.136C83.5132 20.2827 83.1505 19.12 83.1505 17.648C83.1505 16.56 83.3212 15.4933 83.6625 14.448C84.0252 13.4027 84.5265 12.464 85.1665 11.632C85.8065 10.8 86.5532 10.1387 87.4065 9.648C88.2598 9.15733 89.1878 8.912 90.1905 8.912C90.8305 8.912 91.3958 9.008 91.8865 9.2C92.3985 9.392 92.8465 9.63733 93.2305 9.936C93.2092 8.48533 93.1345 7.184 93.0065 6.032C92.8785 4.88 92.5692 3.81333 92.0785 2.832C91.9932 2.66133 91.9185 2.512 91.8545 2.384C91.8118 2.23467 91.7905 2.096 91.7905 1.968C91.7905 1.66933 91.9078 1.392 92.1425 1.136C92.3985 0.879999 92.7078 0.666665 93.0705 0.495998C93.4332 0.325333 93.7745 0.24 94.0945 0.24C94.6705 0.24 95.0972 0.496 95.3745 1.008C95.6732 1.49867 95.8652 2.18133 95.9505 3.056C96.0358 3.90933 96.0785 4.89067 96.0785 6C96.0785 7.62133 96.0038 9.08267 95.8545 10.384C95.7052 11.6853 95.5665 12.8267 95.4385 13.808C95.3532 14.448 95.2785 15.0027 95.2145 15.472C95.1505 15.9413 95.1185 16.3253 95.1185 16.624C95.1185 18.1387 95.7692 19.0347 97.0705 19.312C97.4118 19.376 97.5825 19.6 97.5825 19.984C97.5825 20.2187 97.5078 20.5173 97.3585 20.88C97.2305 21.2427 96.9852 21.5733 96.6225 21.872C96.2598 22.1493 95.7372 22.288 95.0545 22.288C94.1372 22.288 93.5185 21.9787 93.1985 21.36C92.8785 20.7413 92.7185 19.8027 92.7185 18.544C92.1212 19.632 91.3638 20.5493 90.4465 21.296C89.5292 22.0427 88.4732 22.416 87.2785 22.416ZM88.2705 18.992C88.8678 18.992 89.4652 18.8 90.0625 18.416C90.6598 18.032 91.1932 17.5093 91.6625 16.848C91.9398 16.4427 92.1852 15.984 92.3985 15.472C92.6332 14.9387 92.8465 14.4053 93.0385 13.872C91.9505 12.8907 90.7452 12.4 89.4225 12.4C88.2705 12.4 87.3532 12.752 86.6705 13.456C85.9878 14.1387 85.6465 14.992 85.6465 16.016C85.6465 16.8907 85.9025 17.6053 86.4145 18.16C86.9265 18.7147 87.5452 18.992 88.2705 18.992ZM104.678 22.416C103.056 22.416 101.787 21.9573 100.87 21.04C99.9735 20.1013 99.5255 18.8 99.5255 17.136C99.5255 15.6213 99.8562 14.2453 100.518 13.008C101.179 11.7707 102.064 10.7893 103.174 10.064C104.304 9.31733 105.542 8.944 106.885 8.944C108.166 8.944 109.19 9.264 109.958 9.904C110.726 10.5227 111.11 11.3547 111.11 12.4C111.11 13.232 110.854 14 110.342 14.704C109.83 15.408 109.147 15.9733 108.294 16.4C107.44 16.8053 106.491 17.008 105.446 17.008C104.166 17.008 103.12 16.72 102.31 16.144C102.331 17.1253 102.662 17.9147 103.302 18.512C103.963 19.1093 104.806 19.408 105.83 19.408C106.448 19.408 107.078 19.3013 107.718 19.088C108.379 18.8533 108.944 18.544 109.414 18.16C109.712 17.904 109.99 17.776 110.246 17.776C110.459 17.776 110.63 17.8507 110.758 18C110.907 18.128 110.982 18.2987 110.982 18.512C110.982 18.9813 110.576 19.6 109.766 20.368C108.336 21.7333 106.64 22.416 104.678 22.416ZM105.158 14.896C105.926 14.896 106.566 14.736 107.078 14.416C107.59 14.096 107.845 13.6907 107.845 13.2C107.845 12.7947 107.675 12.4853 107.334 12.272C106.992 12.0373 106.523 11.92 105.926 11.92C105.136 11.92 104.443 12.1333 103.846 12.56C103.27 12.9653 102.854 13.5413 102.598 14.288C102.896 14.48 103.28 14.6293 103.75 14.736C104.219 14.8427 104.688 14.896 105.158 14.896ZM118.616 22.416C117.57 22.416 116.6 22.2667 115.704 21.968C114.829 21.648 114.125 21.2107 113.592 20.656C113.058 20.1013 112.792 19.4507 112.792 18.704C112.792 18.2133 112.909 17.7867 113.144 17.424C113.378 17.04 113.698 16.848 114.104 16.848C114.36 16.848 114.626 16.944 114.904 17.136C115.437 17.6053 116.12 18.0213 116.952 18.384C117.805 18.7253 118.712 18.896 119.672 18.896C120.93 18.896 121.954 18.6507 122.744 18.16C123.554 17.648 123.96 16.9653 123.96 16.112C123.96 15.3013 123.586 14.7147 122.84 14.352C122.093 13.9893 121.058 13.648 119.736 13.328C118.754 13.0933 117.805 12.7947 116.888 12.432C115.992 12.0693 115.245 11.568 114.648 10.928C114.072 10.2667 113.784 9.392 113.784 8.304C113.784 7.472 113.965 6.65067 114.328 5.84C114.69 5.008 115.224 4.25067 115.928 3.568C116.632 2.88533 117.485 2.34133 118.488 1.936C119.49 1.50933 120.621 1.296 121.88 1.296C122.818 1.296 123.672 1.40267 124.44 1.616C125.229 1.82933 125.848 2.128 126.296 2.512C126.765 2.896 127 3.36533 127 3.92C127 4.34667 126.882 4.72 126.648 5.04C126.413 5.36 126.136 5.616 125.816 5.808C125.496 5.97867 125.218 6.064 124.984 6.064C124.77 6.064 124.482 5.968 124.12 5.776C123.522 5.456 122.85 5.21067 122.104 5.04C121.378 4.848 120.738 4.752 120.184 4.752C119.138 4.752 118.285 4.98667 117.624 5.456C116.984 5.904 116.664 6.43733 116.664 7.056C116.664 7.73867 117.069 8.31467 117.88 8.784C118.712 9.232 120.194 9.712 122.328 10.224C123.778 10.608 124.909 11.1413 125.72 11.824C126.53 12.4853 126.936 13.5413 126.936 14.992C126.936 16.2933 126.584 17.5093 125.88 18.64C125.197 19.7707 124.226 20.688 122.968 21.392C121.73 22.0747 120.28 22.416 118.616 22.416ZM138.62 30.832C138.023 30.832 137.543 30.6613 137.18 30.32C136.839 29.9787 136.658 29.3387 136.636 28.4C136.615 27.4187 136.754 26.128 137.052 24.528C137.372 22.9493 137.714 21.3067 138.076 19.6C137.479 20.4533 136.796 21.136 136.028 21.648C135.282 22.16 134.396 22.416 133.372 22.416C132.092 22.416 131.079 21.9787 130.332 21.104C129.607 20.2293 129.244 19.0027 129.244 17.424C129.244 16.3787 129.404 15.3547 129.724 14.352C130.044 13.3493 130.524 12.4427 131.164 11.632C131.804 10.8 132.604 10.1387 133.564 9.648C134.524 9.15733 135.634 8.912 136.892 8.912C137.682 8.912 138.407 9.01867 139.068 9.232C139.751 9.44533 140.306 9.73333 140.732 10.096C141.095 10.3947 141.319 10.672 141.404 10.928C141.49 11.184 141.532 11.4613 141.532 11.76C141.532 12.3787 141.468 13.136 141.34 14.032C141.234 14.928 141.095 15.8133 140.924 16.688C140.754 17.5627 140.604 18.3093 140.476 18.928C140.284 19.9307 140.124 20.9867 139.996 22.096C139.89 23.2267 139.836 24.2613 139.836 25.2C139.836 25.8827 139.9 26.448 140.028 26.896C140.156 27.3653 140.476 27.7387 140.988 28.016C141.116 28.08 141.223 28.144 141.308 28.208C141.415 28.2933 141.468 28.4107 141.468 28.56C141.468 28.7307 141.383 28.9973 141.212 29.36C141.042 29.744 140.754 30.0853 140.348 30.384C139.943 30.6827 139.367 30.832 138.62 30.832ZM134.364 18.992C134.962 18.992 135.559 18.8107 136.156 18.448C136.754 18.064 137.287 17.5413 137.756 16.88C138.076 16.3893 138.354 15.8347 138.588 15.216C138.823 14.5973 138.962 13.9253 139.004 13.2C138.663 13.0293 138.194 12.8587 137.596 12.688C137.02 12.496 136.391 12.4 135.708 12.4C134.45 12.4 133.468 12.752 132.764 13.456C132.082 14.1387 131.74 14.9813 131.74 15.984C131.74 16.88 131.996 17.6053 132.508 18.16C133.02 18.7147 133.639 18.992 134.364 18.992ZM148.247 22.416C147.181 22.416 146.349 22.1067 145.751 21.488C145.175 20.8693 144.887 19.9733 144.887 18.8C144.887 17.968 145.005 17.1147 145.239 16.24C145.346 15.8773 145.431 15.5147 145.495 15.152C145.559 14.7893 145.591 14.4267 145.591 14.064C145.591 13.1253 145.303 12.5173 144.727 12.24C144.173 11.9413 143.895 11.6213 143.895 11.28C143.895 10.9387 144.034 10.5973 144.311 10.256C144.61 9.91467 144.973 9.63733 145.399 9.424C145.826 9.18933 146.253 9.072 146.679 9.072C147.895 9.072 148.503 10.064 148.503 12.048C148.503 12.688 148.45 13.2853 148.343 13.84C148.258 14.3733 148.151 14.8853 148.023 15.376C147.938 15.7173 147.863 16.0587 147.799 16.4C147.757 16.7413 147.735 17.04 147.735 17.296C147.735 18.3627 148.258 18.896 149.303 18.896C150.285 18.896 151.202 18.3733 152.055 17.328C152.909 16.2827 153.613 14.8213 154.167 12.944L154.135 12.336C154.093 11.2693 154.274 10.4587 154.679 9.904C155.106 9.34933 155.725 9.072 156.535 9.072C157.239 9.072 157.591 9.296 157.591 9.744C157.591 9.89333 157.559 10.0853 157.495 10.32C157.453 10.5547 157.378 10.832 157.271 11.152C157.058 11.9413 156.877 12.784 156.727 13.68C156.578 14.5547 156.503 15.3653 156.503 16.112C156.503 16.944 156.631 17.6373 156.887 18.192C157.143 18.7253 157.623 19.088 158.327 19.28C158.519 19.3013 158.669 19.3653 158.775 19.472C158.903 19.5573 158.967 19.7493 158.967 20.048C158.967 20.56 158.754 21.0613 158.327 21.552C157.901 22.0427 157.282 22.288 156.471 22.288C154.914 22.288 154.135 21.1893 154.135 18.992C154.135 18.608 154.167 18.032 154.231 17.264L154.167 17.232C152.823 20.688 150.85 22.416 148.247 22.416ZM164.747 22.416C163.467 22.416 162.432 22.0213 161.643 21.232C160.875 20.4213 160.491 19.2693 160.491 17.776C160.491 16.7093 160.693 15.6533 161.099 14.608C161.525 13.5413 162.133 12.5813 162.923 11.728C163.712 10.8747 164.661 10.192 165.771 9.68C166.88 9.168 168.128 8.912 169.515 8.912C170.795 8.912 171.883 9.136 172.779 9.584C173.696 10.0107 174.155 10.5973 174.155 11.344C174.155 11.536 174.133 11.792 174.091 12.112C174.048 12.4107 173.995 12.656 173.931 12.848C173.867 13.0187 173.771 13.1787 173.643 13.328C173.536 13.456 173.387 13.52 173.195 13.52C173.109 13.52 172.949 13.488 172.715 13.424C172.629 13.872 172.565 14.3093 172.523 14.736C172.48 15.1627 172.459 15.5893 172.459 16.016C172.459 16.8267 172.576 17.552 172.811 18.192C173.067 18.8107 173.557 19.1947 174.283 19.344C174.475 19.3867 174.624 19.4507 174.731 19.536C174.859 19.6213 174.923 19.8027 174.923 20.08C174.923 20.3147 174.859 20.6133 174.731 20.976C174.624 21.3387 174.4 21.6693 174.059 21.968C173.739 22.2453 173.269 22.384 172.651 22.384C171.819 22.384 171.179 22.0853 170.731 21.488C170.283 20.8693 170.059 19.9947 170.059 18.864C169.483 19.9093 168.747 20.7627 167.851 21.424C166.976 22.0853 165.941 22.416 164.747 22.416ZM165.771 19.088C166.624 19.088 167.371 18.8213 168.01 18.288C168.672 17.7547 169.184 17.0827 169.547 16.272C169.781 15.76 169.963 15.2053 170.091 14.608C170.219 13.9893 170.304 13.3813 170.347 12.784C169.984 12.6133 169.568 12.4747 169.099 12.368C168.629 12.2613 168.139 12.208 167.627 12.208C166.325 12.208 165.248 12.592 164.395 13.36C163.563 14.128 163.147 15.088 163.147 16.24C163.147 17.0933 163.381 17.7867 163.851 18.32C164.32 18.832 164.96 19.088 165.771 19.088ZM178.824 22.352C178.482 22.352 178.205 22.288 177.992 22.16C177.8 22.0533 177.736 21.8613 177.799 21.584C178.034 20.6667 178.226 19.7387 178.376 18.8C178.546 17.84 178.632 16.9227 178.632 16.048C178.632 14.9173 178.557 14.096 178.408 13.584C178.28 13.0507 178.098 12.688 177.864 12.496C177.629 12.2827 177.341 12.1227 177 12.016C176.85 11.952 176.712 11.8667 176.584 11.76C176.477 11.6533 176.424 11.504 176.424 11.312C176.424 11.0133 176.541 10.6827 176.776 10.32C177.01 9.95733 177.341 9.648 177.768 9.392C178.194 9.11467 178.685 8.976 179.24 8.976C179.965 8.976 180.466 9.232 180.744 9.744C181.042 10.2347 181.192 10.8853 181.192 11.696C181.576 10.8427 182.045 10.1707 182.6 9.68C183.176 9.168 183.89 8.912 184.744 8.912C185.32 8.912 185.8 9.04 186.184 9.296C186.568 9.552 186.76 9.968 186.76 10.544C186.76 11.12 186.568 11.664 186.184 12.176C185.821 12.6667 185.448 12.912 185.064 12.912C185 12.912 184.925 12.9013 184.84 12.88C184.754 12.8587 184.68 12.8053 184.616 12.72C184.338 12.3787 183.997 12.208 183.592 12.208C182.973 12.208 182.429 12.6133 181.96 13.424C181.49 14.2347 181.234 15.3547 181.192 16.784C181.213 17.3173 181.224 17.8613 181.224 18.416C181.245 18.9707 181.256 19.376 181.256 19.632C181.256 20.4213 181.032 21.072 180.584 21.584C180.157 22.096 179.57 22.352 178.824 22.352ZM192.146 22.416C190.525 22.416 189.256 21.9573 188.338 21.04C187.442 20.1013 186.994 18.8 186.994 17.136C186.994 15.6213 187.325 14.2453 187.986 13.008C188.648 11.7707 189.533 10.7893 190.642 10.064C191.773 9.31733 193.01 8.944 194.354 8.944C195.634 8.944 196.658 9.264 197.426 9.904C198.194 10.5227 198.578 11.3547 198.578 12.4C198.578 13.232 198.322 14 197.81 14.704C197.298 15.408 196.616 15.9733 195.762 16.4C194.909 16.8053 193.96 17.008 192.914 17.008C191.634 17.008 190.589 16.72 189.778 16.144C189.8 17.1253 190.13 17.9147 190.77 18.512C191.432 19.1093 192.274 19.408 193.298 19.408C193.917 19.408 194.546 19.3013 195.186 19.088C195.848 18.8533 196.413 18.544 196.882 18.16C197.181 17.904 197.458 17.776 197.714 17.776C197.928 17.776 198.098 17.8507 198.226 18C198.376 18.128 198.45 18.2987 198.45 18.512C198.45 18.9813 198.045 19.6 197.234 20.368C195.805 21.7333 194.109 22.416 192.146 22.416ZM192.626 14.896C193.394 14.896 194.034 14.736 194.546 14.416C195.058 14.096 195.314 13.6907 195.314 13.2C195.314 12.7947 195.144 12.4853 194.802 12.272C194.461 12.0373 193.992 11.92 193.394 11.92C192.605 11.92 191.912 12.1333 191.314 12.56C190.738 12.9653 190.322 13.5413 190.066 14.288C190.365 14.48 190.749 14.6293 191.218 14.736C191.688 14.8427 192.157 14.896 192.626 14.896Z" fill="#EEE1FF"/>
</svg>
